<svg width="72" height="216" viewBox="0 0 72 216" fill="none" xmlns="http://www.w3.org/2000/svg">
<rect width="72" height="216" fill="white"/>
<path d="M36 205C30.9912 204.999 15.0078 203.996 15.0078 197V85C15.0078 84.7804 15.0058 84.5627 15.0039 84.346C14.9746 81.1078 14.947 78.0608 21.5078 71.5C27.4462 65.5616 27.2673 62.1421 27.0764 58.4941C27.0423 57.842 27.0078 57.1825 27.0078 56.5V23C26.969 22.9612 26.9256 22.9232 26.8793 22.8827C26.5282 22.5756 26.0078 22.1204 26.0078 20C26.0078 17.6 26.6745 17 27.0078 17V15.1246C27.0078 13.7274 27.6311 12.6047 29.0121 12.3926C30.4211 12.1761 32.6591 12 36 12C39.3436 12 41.5847 12.1764 42.9955 12.3931C44.3765 12.6052 45 13.7274 45 15.1246V17C45.3333 17 46 17.6 46 20C46 22.1204 45.4796 22.5756 45.1285 22.8827C45.0822 22.9232 45.0388 22.9612 45 23V56.5C45 57.1825 44.9655 57.842 44.9314 58.4941C44.7405 62.1421 44.5616 65.5616 50.5 71.5C57.0608 78.0608 57.0332 81.1078 57.0039 84.346C57.002 84.5627 57 84.7804 57 85V197C57 203.996 41.0167 204.999 36.0078 205" fill="#CCCCCC"/>
</svg>
